<svg width="320" height="220" viewBox="0 0 320 220" fill="none" xmlns="http://www.w3.org/2000/svg" role="img" aria-labelledby="title desc">
  <title id="title">No schedule illustration</title>
  <desc id="desc">Calendar icon with a crossed circle to indicate no schedule</desc>

  <rect x="48" y="28" width="176" height="144" rx="20" fill="#F8FAFC" stroke="#83D3DD" stroke-width="4"/>
  <rect x="48" y="28" width="176" height="36" rx="20" fill="#D8F3F5"/>

  <rect x="76" y="86" width="24" height="18" rx="4" fill="#E6F6F8"/>
  <rect x="110" y="86" width="24" height="18" rx="4" fill="#E6F6F8"/>
  <rect x="144" y="86" width="24" height="18" rx="4" fill="#E6F6F8"/>
  <rect x="76" y="114" width="24" height="18" rx="4" fill="#E6F6F8"/>
  <rect x="110" y="114" width="24" height="18" rx="4" fill="#E6F6F8"/>
  <rect x="144" y="114" width="24" height="18" rx="4" fill="#E6F6F8"/>

  <line x1="90" y1="16" x2="90" y2="46" stroke="#259AAD" stroke-width="8" stroke-linecap="round"/>
  <line x1="182" y1="16" x2="182" y2="46" stroke="#259AAD" stroke-width="8" stroke-linecap="round"/>

  <circle cx="234" cy="138" r="50" fill="#EFFBFB" stroke="#4CB8C8" stroke-width="4"/>
  <line x1="206" y1="110" x2="262" y2="166" stroke="#1D7B8E" stroke-width="8" stroke-linecap="round"/>

  <circle cx="268" cy="54" r="14" fill="#B5E7EB"/>
  <line x1="262" y1="48" x2="274" y2="60" stroke="#1D6373" stroke-width="4" stroke-linecap="round"/>
  <line x1="274" y1="48" x2="262" y2="60" stroke="#1D6373" stroke-width="4" stroke-linecap="round"/>
</svg>
